<?xml version="1.0" standalone="no"?><!DOCTYPE svg PUBLIC "-//W3C//DTD SVG 1.1//EN" "http://www.w3.org/Graphics/SVG/1.1/DTD/svg11.dtd"><svg t="1506154487799" class="icon" style="" viewBox="0 0 1024 1024" version="1.1" xmlns="http://www.w3.org/2000/svg" p-id="19209" xmlns:xlink="http://www.w3.org/1999/xlink" width="48" height="48"><defs><style type="text/css"></style></defs><path d="M179.807179 831.05664c-9.330506-5.145184-18.030655-9.360182-18.499329-9.581216l-5.065366 2.254344-5.2864 6.490831 6.438643 16.547885c0 0 106.639762 102.052281 263.939321 112.817462 146.753365 10.04068 278.43036-58.164724 367.216499-175.851077 52.719712-69.87851 81.782631-182.845375 81.556481-230.191706-0.010233-1.933025-0.025583-3.273557 0-5.216815 34.029024 13.175067 58.370409 0.456395 60.08854-10.771321-5.451152 2.423189-22.030759 4.587482-28.344558-1.77032 28.245298-0.324388 50.714032-21.686928 44.898583-42.222637 0.061398 15.600303-20.028149 23.219841-28.356838 19.775392 8.973372-4.563946 13.183254-11.793604 12.746302-15.904225-5.417383 4.246721-37.290301 24.101931-74.776054-71.672366-14.777565-37.370119-21.268396-46.943149-21.268396-46.943149 24.641213 4.002151 43.420929-22.927175 42.534745-33.900088 0 0-7.703449 9.391904-18.61087 7.821129 34.938744-24.956392 18.61087-46.939055 18.61087-46.939055s2.857071 20.312628-18.61087 26.078958c2.87549-2.200108 10.413164-14.34573 2.659573-23.472598-0.535189 11.406794-8.40646 18.889209-16.282848 18.255783-9.139148-0.732687-30.238698-3.802606-74.103742-49.549509-26.361391-28.468378-31.900547-31.29168-31.900547-31.29168 7.940856 0.356111 31.169907-12.674671 29.243021-33.902134-2.187829 5.973038-6.200212 9.447163-13.292748 10.429537 18.401092-20.072151 5.957689-49.016367 0-49.547463 1.995447 5.107321 2.797719 11.57257-5.316076 18.255783-6.684236 5.579065-19.916609 7.823176-26.584472 7.823176-11.794627 0.324388-32.980135-1.303692-50.399877-5.867638-17.415648-4.565992-39.658232-15.388479-39.658232-15.388479l-0.004093 0.002047c-9.973142-4.975315-21.366633-10.227945-32.55751-14.427594 0 0-36.894282-89.397053-117.1747-98.420567 8.703219 8.491395 30.815843 54.328349 11.076266 82.677001 0 0-4.38589 1.453095-23.361057 10.259668-29.876448 12.463869-77.781504 45.01217-102.764502 67.373457-6.602372 5.909593-9.187243 7.693216-9.187243 7.693216 12.718673-14.270005 49.374524-49.698912 117.144-85.327364 0 0-32.748868-50.7785-94.448092-43.986817 0 0 24.788569 25.855878 19.171642 61.943794 0 0-11.237949 8.776897-36.338626 30.782074 0 0-27.929096 22.99676-36.338626 33.346479-9.445116 11.625782-18.403139 23.731494-16.400528 41.123606 0.722454 6.277984-9.836019 17.959024-12.151761 20.440541-11.682064 12.526291-29.965475 30.685883-66.50774 65.497737 0 0-48.14758 45.561685-69.783343 65.354474-6.494924 5.943362-10.644431 4.41659-21.125133 16.522302 0 0-12.225439 12.310374-18.168802 17.955954-14.154371 14.232143-15.185864 30.068829-10.383488 61.564148l20.764929 76.956719c0 0 7.408737 20.902052 51.452859 25.264407 0 0 37.573757 5.465478 48.687886-0.537236 11.720949-6.335289 13.68672-15.524578 23.938202-26.078958 22.948665-17.425881 43.99705-19.271926 73.886801-29.626761 9.951653-4.374634 25.971511-5.015224 42.557258-5.216815 14.19428-0.172939 30.622438 2.073218 45.218878 5.216815 3.078105 0.661056 19.150152 6.767124 26.598798 10.429537 0 0 88.437192 33.033347 85.116563 153.863297 0 0-3.111874 144.279011-165.402097 145.290037C287.055808 874.055966 181.833325 832.172043 179.807179 831.05664z" p-id="19210" fill="#02b3e4"></path></svg>